<svg version="1.1" id="Layer_1" xmlns="http://www.w3.org/2000/svg" xmlns:xlink="http://www.w3.org/1999/xlink" x="0px" y="0px"
	 width="100%" viewBox="0 0 297 244" enable-background="new 0 0 297 244" xml:space="preserve">
<path fill="#000000" opacity="1.000000" stroke="none" 
	d="
M177.000000,245.000000 
	C118.000008,245.000000 59.500015,245.000000 1.000016,245.000000 
	C1.000010,163.666687 1.000010,82.333366 1.000005,1.000038 
	C99.999969,1.000025 198.999939,1.000025 297.999939,1.000013 
	C297.999939,82.333290 297.999939,163.666580 297.999969,244.999939 
	C257.833344,245.000000 217.666672,245.000000 177.000000,245.000000 
M84.489861,90.841881 
	C84.574844,90.530060 84.659821,90.218246 84.826927,89.307732 
	C84.862785,88.907890 84.898643,88.508057 85.494293,87.843521 
	C85.907990,86.956055 86.321693,86.068581 87.334099,84.700195 
	C91.395439,80.038147 90.698586,76.699196 85.080475,73.129044 
	C85.636871,71.668991 86.459068,70.250702 86.696365,68.740501 
	C87.253075,65.197563 87.529869,61.610638 88.601486,57.678204 
	C89.028809,57.459179 89.486465,57.005196 89.878975,57.055859 
	C97.584579,58.050503 105.282616,59.103802 112.984283,61.050938 
	C112.976707,63.876911 112.941551,66.703133 112.967377,69.528801 
	C113.018677,75.141655 114.752899,76.978210 120.397820,76.881310 
	C128.324341,76.745224 136.245392,76.277405 144.171906,76.157799 
	C155.543121,75.986214 166.917343,76.022675 178.289871,75.923561 
	C182.173065,75.889725 183.952271,73.751564 183.960037,69.946236 
	C183.966843,66.621620 184.040939,63.297138 184.759155,59.520107 
	C199.838745,57.287468 214.918335,55.054829 229.997940,52.822189 
	C229.985992,52.306023 229.974045,51.789852 229.962097,51.273682 
	C228.969238,50.837475 228.016052,50.216705 226.977417,49.993473 
	C216.040375,47.642799 205.089630,45.355816 194.142776,43.050816 
	C181.762527,40.444004 169.382370,37.836758 156.152832,35.064556 
	C152.895615,34.738503 149.469574,33.593819 146.409729,34.224865 
	C131.320343,37.336826 116.325562,40.908676 101.302345,44.339905 
	C93.080139,46.217815 84.853127,48.078468 76.657661,50.067936 
	C73.082680,50.935768 69.581421,52.107227 66.046677,53.140793 
	C66.170197,53.606579 66.293716,54.072369 66.417236,54.538158 
	C69.931259,55.068634 73.445290,55.599110 76.976555,57.044800 
	C76.995750,62.618862 77.014946,68.192924 76.401169,74.131981 
	C72.302338,78.617310 72.280556,80.078072 75.982841,85.016190 
	C75.418633,87.056381 75.260483,89.341568 74.207451,91.086815 
	C71.864693,94.969597 73.827690,95.723984 77.148216,95.919380 
	C80.773987,96.132729 83.163162,94.646744 83.997597,90.998795 
	C83.997597,90.998795 84.008545,91.028511 84.489861,90.841881 
M112.043266,175.485535 
	C111.952171,183.119751 114.340454,192.003235 102.775665,193.872086 
	C102.587486,193.902481 102.470680,194.374573 101.842209,195.488083 
	C104.236046,196.017166 106.330864,196.902542 108.408936,196.864838 
	C116.506989,196.717865 124.599609,196.043213 132.694489,196.039154 
	C137.267120,196.036850 139.180679,194.815430 139.054565,189.828659 
	C138.734711,177.181305 138.857315,164.518524 139.081985,151.866867 
	C139.110962,150.235168 140.549744,147.456680 141.746353,147.211060 
	C148.615021,145.801147 155.654388,145.241592 162.548706,143.934067 
	C177.778442,141.045715 193.158722,138.186356 206.560455,129.905838 
	C217.784897,122.970619 220.118027,116.840782 216.987411,103.636398 
	C214.091385,91.421440 203.648880,85.965233 193.014938,83.483871 
	C180.653931,80.599495 167.680450,79.980263 154.923004,79.260582 
	C143.303787,78.605118 131.617935,79.132416 119.961464,79.135750 
	C113.027748,79.137733 112.555595,79.569954 112.053123,86.570831 
	C111.981789,87.564766 112.042267,88.568184 112.042290,89.567207 
	C112.043037,117.875099 112.043846,146.182983 112.043266,175.485535 
z"/>
<path fill="#3B9DCF" opacity="1.000000" stroke="none" 
	d="
M112.043961,174.988205 
	C112.043846,146.182983 112.043037,117.875099 112.042290,89.567207 
	C112.042267,88.568184 111.981789,87.564766 112.053123,86.570831 
	C112.555595,79.569954 113.027748,79.137733 119.961464,79.135750 
	C131.617935,79.132416 143.303787,78.605118 154.923004,79.260582 
	C167.680450,79.980263 180.653931,80.599495 193.014938,83.483871 
	C203.648880,85.965233 214.091385,91.421440 216.987411,103.636398 
	C220.118027,116.840782 217.784897,122.970619 206.560455,129.905838 
	C193.158722,138.186356 177.778442,141.045715 162.548706,143.934067 
	C155.654388,145.241592 148.615021,145.801147 141.746353,147.211060 
	C140.549744,147.456680 139.110962,150.235168 139.081985,151.866867 
	C138.857315,164.518524 138.734711,177.181305 139.054565,189.828659 
	C139.180679,194.815430 137.267120,196.036850 132.694489,196.039154 
	C124.599609,196.043213 116.506989,196.717865 108.408936,196.864838 
	C106.330864,196.902542 104.236046,196.017166 101.842209,195.488083 
	C102.470680,194.374573 102.587486,193.902481 102.775665,193.872086 
	C114.340454,192.003235 111.952171,183.119751 112.043961,174.988205 
M171.314545,81.943848 
	C154.691269,81.920723 138.067947,81.865829 121.444748,81.889946 
	C114.692184,81.899742 113.983429,82.657539 113.976982,89.351807 
	C113.946823,120.658302 113.946198,151.964828 113.889732,183.271286 
	C113.885880,185.411438 113.959557,187.725433 113.209694,189.652084 
	C111.907463,192.998001 113.261589,193.984299 116.216789,194.030731 
	C120.711899,194.101364 125.209930,194.146103 129.704269,194.065491 
	C135.705063,193.957870 137.014221,192.629074 137.031586,186.637665 
	C137.065384,174.981110 136.972321,163.324005 137.048309,151.667892 
	C137.085297,145.994324 138.928513,144.610779 144.571396,144.019836 
	C151.876694,143.254822 159.190399,142.252762 166.376068,140.755661 
	C172.973557,139.381104 179.309113,136.317368 185.933304,135.602036 
	C196.466980,134.464554 203.506287,127.589264 211.389771,122.038612 
	C213.095840,120.837395 214.172058,118.337769 214.899490,116.217049 
	C219.115295,103.926735 209.808426,92.379509 198.877396,88.030144 
	C190.521957,84.705574 181.169815,83.885902 171.314545,81.943848 
z"/>
<path fill="#3D9FDF" opacity="1.000000" stroke="none" 
	d="
M157.002182,35.229702 
	C169.382370,37.836758 181.762527,40.444004 194.142776,43.050816 
	C205.089630,45.355816 216.040375,47.642799 226.977417,49.993473 
	C228.016052,50.216705 228.969238,50.837475 229.962097,51.273682 
	C229.974045,51.789852 229.985992,52.306023 229.997940,52.822189 
	C214.918335,55.054829 199.838745,57.287468 184.091202,59.589523 
	C180.731674,59.894619 178.040100,60.130295 174.917572,60.370003 
	C161.982620,61.701847 149.681900,65.355736 136.848862,62.693783 
	C130.376907,61.351307 123.678581,61.100128 116.726318,60.253448 
	C115.898109,60.001923 115.426201,59.852448 114.956291,59.495026 
	C114.958290,59.287079 114.962639,58.871185 115.319855,58.710617 
	C118.786110,58.724323 121.905403,58.792801 125.002243,59.092937 
	C133.893265,59.954636 142.857437,62.139668 151.642181,61.552078 
	C166.289169,60.572380 180.818665,57.838825 195.398315,55.848679 
	C200.320206,55.176834 205.260620,54.619591 210.159531,53.810051 
	C212.277924,53.459991 214.312576,52.603260 216.385269,51.976685 
	C215.423340,50.500603 214.606781,50.026993 213.729202,49.840458 
	C204.220688,47.819382 194.708725,45.813515 185.185318,43.863960 
	C176.598541,42.106140 167.981232,40.493122 159.416916,38.634212 
	C158.098755,38.348106 156.992996,37.083412 156.006958,36.116322 
	C156.483994,35.717468 156.743088,35.473583 157.002182,35.229702 
z"/>
<path fill="#3D98CA" opacity="1.000000" stroke="none" 
	d="
M114.962639,58.871185 
	C114.962639,58.871185 114.958290,59.287079 114.632736,59.587559 
	C113.865517,59.973740 113.423851,60.059441 112.982193,60.145142 
	C105.282616,59.103802 97.584579,58.050503 89.878975,57.055859 
	C89.486465,57.005196 89.028809,57.459179 88.028656,57.563080 
	C83.956993,57.008499 80.458153,56.569046 76.959312,56.129589 
	C73.445290,55.599110 69.931259,55.068634 66.417236,54.538158 
	C66.293716,54.072369 66.170197,53.606579 66.046677,53.140793 
	C69.581421,52.107227 73.082680,50.935768 76.657661,50.067936 
	C84.853127,48.078468 93.080139,46.217815 101.302345,44.339905 
	C116.325562,40.908676 131.320343,37.336826 146.409729,34.224865 
	C149.469574,33.593819 152.895615,34.738503 156.577515,35.147125 
	C156.743088,35.473583 156.483994,35.717468 155.661224,36.147182 
	C152.303757,36.240562 149.414948,35.645554 146.734436,36.152313 
	C139.443726,37.530640 132.236877,39.356834 125.004723,41.039593 
	C116.142929,43.101532 107.289322,45.198639 98.431908,47.279438 
	C91.663254,48.869545 84.894203,50.457943 78.125336,52.047100 
	C78.155930,52.380718 78.186523,52.714336 78.217125,53.047951 
	C83.150368,54.054283 88.083611,55.060616 93.186546,56.219612 
	C93.602142,56.558617 93.871620,56.700066 94.546547,56.785458 
	C95.943695,56.851089 96.958969,56.927879 98.319000,57.203865 
	C101.135078,57.572525 103.606384,57.741985 106.490425,57.912888 
	C108.277260,57.981197 109.651375,58.048061 111.260391,58.275913 
	C112.047974,58.575718 112.600647,58.714535 113.455032,58.844166 
	C114.158707,58.847050 114.560677,58.859116 114.962639,58.871185 
z"/>
<path fill="#3E2591" opacity="1.000000" stroke="none" 
	d="
M112.983238,60.598038 
	C113.423851,60.059441 113.865517,59.973740 114.630737,59.795506 
	C115.426201,59.852448 115.898109,60.001923 116.873215,60.415520 
	C117.248444,61.234009 117.221733,61.838192 116.977203,62.335217 
	C113.621422,69.156242 116.540474,74.037552 123.965332,74.037796 
	C140.716400,74.038353 157.467499,74.086670 174.218521,74.065414 
	C181.382217,74.056328 181.849792,73.122009 182.167755,65.997223 
	C182.415771,60.439487 178.456253,61.200378 175.348526,60.365967 
	C178.040100,60.130295 180.731674,59.894619 183.754272,59.815773 
	C184.040939,63.297138 183.966843,66.621620 183.960037,69.946236 
	C183.952271,73.751564 182.173065,75.889725 178.289871,75.923561 
	C166.917343,76.022675 155.543121,75.986214 144.171906,76.157799 
	C136.245392,76.277405 128.324341,76.745224 120.397820,76.881310 
	C114.752899,76.978210 113.018677,75.141655 112.967377,69.528801 
	C112.941551,66.703133 112.976707,63.876911 112.983238,60.598038 
z"/>
<path fill="#472797" opacity="1.000000" stroke="none" 
	d="
M76.967934,56.587196 
	C80.458153,56.569046 83.956993,57.008499 87.687897,57.744736 
	C87.529869,61.610638 87.253075,65.197563 86.696365,68.740501 
	C86.459068,70.250702 85.636871,71.668991 84.828316,73.618576 
	C84.355499,74.398880 84.134834,74.689644 83.551498,75.006332 
	C82.460098,75.071205 81.731384,75.110176 80.660797,75.058533 
	C79.223991,74.567612 78.129066,74.167305 77.034134,73.766991 
	C77.014946,68.192924 76.995750,62.618862 76.967934,56.587196 
M83.917763,62.997639 
	C82.939445,61.509178 81.961136,60.020714 80.982819,58.532253 
	C80.523819,60.219173 79.868019,61.882999 79.666512,63.600136 
	C79.497505,65.040359 79.579491,66.643692 80.065857,67.988342 
	C80.521965,69.249329 81.654129,70.265785 82.488800,71.389847 
	C82.990692,71.130447 83.492584,70.871040 83.994476,70.611641 
	C83.994476,68.351540 83.994476,66.091438 83.917763,62.997639 
z"/>
<path fill="#65BC99" opacity="1.000000" stroke="none" 
	d="
M76.717651,73.949486 
	C78.129066,74.167305 79.223991,74.567612 80.510315,75.348114 
	C79.671486,77.348671 78.641266,78.969032 77.611046,80.589394 
	C79.654640,81.239487 81.837669,82.694160 83.712311,82.369316 
	C87.419006,81.726990 87.392090,79.407944 83.914177,74.980415 
	C84.134834,74.689644 84.355499,74.398880 84.822723,73.978226 
	C90.698586,76.699196 91.395439,80.038147 86.826797,84.680153 
	C82.962646,84.553772 79.605797,84.447433 76.248947,84.341095 
	C72.280556,80.078072 72.302338,78.617310 76.717651,73.949486 
z"/>
<path fill="#402D81" opacity="1.000000" stroke="none" 
	d="
M76.115891,84.678635 
	C79.605797,84.447433 82.962646,84.553772 86.527443,84.920609 
	C86.321693,86.068581 85.907990,86.956055 84.891960,87.877960 
	C83.847023,87.688004 83.328941,87.188499 82.974564,87.285728 
	C81.219574,87.767204 79.032104,87.958412 77.929390,89.129677 
	C77.025764,90.089470 77.431778,92.282257 77.257248,93.928474 
	C78.909370,93.211227 80.560829,92.492462 82.213959,91.777542 
	C82.817001,91.516739 83.424004,91.265091 84.029198,91.009262 
	C83.163162,94.646744 80.773987,96.132729 77.148216,95.919380 
	C73.827690,95.723984 71.864693,94.969597 74.207451,91.086815 
	C75.260483,89.341568 75.418633,87.056381 76.115891,84.678635 
z"/>
<path fill="#4F12B9" opacity="1.000000" stroke="none" 
	d="
M84.013397,91.004028 
	C83.424004,91.265091 82.817001,91.516739 82.213959,91.777542 
	C80.560829,92.492462 78.909370,93.211227 77.257248,93.928474 
	C77.431778,92.282257 77.025764,90.089470 77.929390,89.129677 
	C79.032104,87.958412 81.219574,87.767204 82.974564,87.285728 
	C83.328941,87.188499 83.847023,87.688004 84.612068,88.010300 
	C84.898643,88.508057 84.862785,88.907890 84.619781,89.764313 
	C84.207085,90.454659 84.072388,90.723862 84.008545,91.028511 
	C84.008545,91.028511 83.997597,90.998795 84.013397,91.004028 
z"/>
<path fill="#402D81" opacity="1.000000" stroke="none" 
	d="
M84.249207,90.935196 
	C84.072388,90.723862 84.207085,90.454659 84.578712,90.063660 
	C84.659821,90.218246 84.574844,90.530060 84.249207,90.935196 
z"/>
<path fill="#1CB1FB" opacity="1.000000" stroke="none" 
	d="
M171.787781,81.947929 
	C181.169815,83.885902 190.521957,84.705574 198.877396,88.030144 
	C209.808426,92.379509 219.115295,103.926735 214.899490,116.217049 
	C214.172058,118.337769 213.095840,120.837395 211.389771,122.038612 
	C203.506287,127.589264 196.466980,134.464554 185.933304,135.602036 
	C179.309113,136.317368 172.973557,139.381104 166.376068,140.755661 
	C159.190399,142.252762 151.876694,143.254822 144.571396,144.019836 
	C138.928513,144.610779 137.085297,145.994324 137.048309,151.667892 
	C136.972321,163.324005 137.065384,174.981110 137.031586,186.637665 
	C137.014221,192.629074 135.705063,193.957870 129.704269,194.065491 
	C125.209930,194.146103 120.711899,194.101364 116.216789,194.030731 
	C113.261589,193.984299 111.907463,192.998001 113.209694,189.652084 
	C113.959557,187.725433 113.885880,185.411438 113.889732,183.271286 
	C113.946198,151.964828 113.946823,120.658302 113.976982,89.351807 
	C113.983429,82.657539 114.692184,81.899742 121.444748,81.889946 
	C138.067947,81.865829 154.691269,81.920723 171.787781,81.947929 
M161.131927,98.815651 
	C154.732086,96.887817 148.346527,94.910881 141.928131,93.046898 
	C136.271164,91.404045 133.886932,93.003777 134.146362,98.796257 
	C134.516907,107.069695 135.490952,115.314751 135.940552,123.586426 
	C136.273544,129.712677 137.760208,130.795792 143.689178,129.100586 
	C151.634552,126.828835 159.711563,125.009453 167.628952,122.649963 
	C176.493820,120.008118 185.268127,117.051445 194.017654,114.045021 
	C195.383759,113.575615 196.408829,112.113731 197.591599,111.110794 
	C196.235321,109.828545 195.080704,107.825867 193.490128,107.380646 
	C182.970200,104.435989 172.356674,101.825790 161.131927,98.815651 
z"/>
<path fill="#1DB1FB" opacity="1.000000" stroke="none" 
	d="
M93.016853,56.066948 
	C88.083611,55.060616 83.150368,54.054283 78.217125,53.047951 
	C78.186523,52.714336 78.155930,52.380718 78.125336,52.047100 
	C84.894203,50.457943 91.663254,48.869545 98.431908,47.279438 
	C107.289322,45.198639 116.142929,43.101532 125.004723,41.039593 
	C132.236877,39.356834 139.443726,37.530640 146.734436,36.152313 
	C149.414948,35.645554 152.303757,36.240562 155.443298,36.302155 
	C156.992996,37.083412 158.098755,38.348106 159.416916,38.634212 
	C167.981232,40.493122 176.598541,42.106140 185.185318,43.863960 
	C194.708725,45.813515 204.220688,47.819382 213.729202,49.840458 
	C214.606781,50.026993 215.423340,50.500603 216.385269,51.976685 
	C214.312576,52.603260 212.277924,53.459991 210.159531,53.810051 
	C205.260620,54.619591 200.320206,55.176834 195.398315,55.848679 
	C180.818665,57.838825 166.289169,60.572380 151.642181,61.552078 
	C142.857437,62.139668 133.893265,59.954636 125.002243,59.092937 
	C121.905403,58.792801 118.786110,58.724323 115.319855,58.710617 
	C114.560677,58.859116 114.158707,58.847050 113.209335,58.694672 
	C112.116447,58.407887 111.570961,58.261406 111.025482,58.114925 
	C109.651375,58.048061 108.277260,57.981197 106.136292,57.728424 
	C102.904366,57.363235 100.439308,57.183952 97.974243,57.004669 
	C96.958969,56.927879 95.943695,56.851089 94.367996,56.643280 
	C93.560555,56.334431 93.296982,56.185993 93.016853,56.066948 
z"/>
<path fill="#4B15C2" opacity="1.000000" stroke="none" 
	d="
M174.917572,60.370003 
	C178.456253,61.200378 182.415771,60.439487 182.167755,65.997223 
	C181.849792,73.122009 181.382217,74.056328 174.218521,74.065414 
	C157.467499,74.086670 140.716400,74.038353 123.965332,74.037796 
	C116.540474,74.037552 113.621422,69.156242 116.977203,62.335217 
	C117.221733,61.838192 117.248444,61.234009 117.229515,60.517570 
	C123.678581,61.100128 130.376907,61.351307 136.848862,62.693783 
	C149.681900,65.355736 161.982620,61.701847 174.917572,60.370003 
z"/>
<path fill="#3D9FDF" opacity="1.000000" stroke="none" 
	d="
M98.319000,57.203865 
	C100.439308,57.183952 102.904366,57.363235 105.723564,57.726982 
	C103.606384,57.741985 101.135078,57.572525 98.319000,57.203865 
z"/>
<path fill="#3D9FDF" opacity="1.000000" stroke="none" 
	d="
M111.260391,58.275913 
	C111.570961,58.261406 112.116447,58.407887 112.907623,58.703857 
	C112.600647,58.714535 112.047974,58.575718 111.260391,58.275913 
z"/>
<path fill="#3D9FDF" opacity="1.000000" stroke="none" 
	d="
M93.186546,56.219612 
	C93.296982,56.185993 93.560555,56.334431 93.986130,56.654442 
	C93.871620,56.700066 93.602142,56.558617 93.186546,56.219612 
z"/>
<path fill="#47E196" opacity="1.000000" stroke="none" 
	d="
M83.551498,75.006332 
	C87.392090,79.407944 87.419006,81.726990 83.712311,82.369316 
	C81.837669,82.694160 79.654640,81.239487 77.611046,80.589394 
	C78.641266,78.969032 79.671486,77.348671 80.852188,75.438728 
	C81.731384,75.110176 82.460098,75.071205 83.551498,75.006332 
z"/>
<path fill="#4F13C0" opacity="1.000000" stroke="none" 
	d="
M83.956116,63.414490 
	C83.994476,66.091438 83.994476,68.351540 83.994476,70.611641 
	C83.492584,70.871040 82.990692,71.130447 82.488800,71.389847 
	C81.654129,70.265785 80.521965,69.249329 80.065857,67.988342 
	C79.579491,66.643692 79.497505,65.040359 79.666512,63.600136 
	C79.868019,61.882999 80.523819,60.219173 80.982819,58.532253 
	C81.961136,60.020714 82.939445,61.509178 83.956116,63.414490 
z"/>
<path fill="#38A0D2" opacity="1.000000" stroke="none" 
	d="
M161.452774,98.961159 
	C172.356674,101.825790 182.970200,104.435989 193.490128,107.380646 
	C195.080704,107.825867 196.235321,109.828545 197.591599,111.110794 
	C196.408829,112.113731 195.383759,113.575615 194.017654,114.045021 
	C185.268127,117.051445 176.493820,120.008118 167.628952,122.649963 
	C159.711563,125.009453 151.634552,126.828835 143.689178,129.100586 
	C137.760208,130.795792 136.273544,129.712677 135.940552,123.586426 
	C135.490952,115.314751 134.516907,107.069695 134.146362,98.796257 
	C133.886932,93.003777 136.271164,91.404045 141.928131,93.046898 
	C148.346527,94.910881 154.732086,96.887817 161.452774,98.961159 
M168.556824,119.040436 
	C176.929993,116.614937 185.303177,114.189438 193.676346,111.763947 
	C193.759399,111.292450 193.842438,110.820953 193.925491,110.349457 
	C175.146698,105.042831 156.367920,99.736198 136.698151,94.177795 
	C137.249405,106.317276 137.734940,117.009727 138.246506,128.275116 
	C148.263733,125.159576 157.998444,122.131905 168.556824,119.040436 
z"/>
<path fill="#000000" opacity="1.000000" stroke="none" 
	d="
M168.144989,119.072342 
	C157.998444,122.131905 148.263733,125.159576 138.246506,128.275116 
	C137.734940,117.009727 137.249405,106.317276 136.698151,94.177795 
	C156.367920,99.736198 175.146698,105.042831 193.925491,110.349457 
	C193.842438,110.820953 193.759399,111.292450 193.676346,111.763947 
	C185.303177,114.189438 176.929993,116.614937 168.144989,119.072342 
z"/>
</svg>