<svg width="1280" height="152" viewBox="0 0 1280 152" fill="none" xmlns="http://www.w3.org/2000/svg">
<g clip-path="url(#clip0_130_117)">
<rect width="1280" height="152" fill="white"/>
<path d="M0 0H1450V154H0V0Z" fill="#320A7B"/>
<path d="M557.778 29.4647L662.902 -73L769.123 30.5353L664 133L557.778 29.4647Z" fill="#32B9FB"/>
<rect y="-4" width="1440" height="43" fill="#32B9FB"/>
<rect width="1440" height="20" fill="white"/>
<path d="M560 8.01233L663.633 -93L767.266 8.01233L663.633 109.025L560 8.01233Z" fill="white"/>
<g filter="url(#filter0_d_130_117)">
<rect x="846" y="71" width="399" height="45" rx="22.5" fill="white" fill-opacity="0.83" shape-rendering="crispEdges"/>
<rect x="846.5" y="71.5" width="398" height="44" rx="22" stroke="#1BB1FD" shape-rendering="crispEdges"/>
</g>
<g filter="url(#filter1_d_130_117)">
<mask id="path-8-inside-1_130_117" fill="white">
<path d="M390 84.5C390 80.0817 393.582 76.5 398 76.5H502C506.418 76.5 510 80.0817 510 84.5V108.5C510 112.918 506.418 116.5 502 116.5H398C393.582 116.5 390 112.918 390 108.5V84.5Z"/>
</mask>
<path d="M390 84.5C390 80.0817 393.582 76.5 398 76.5H502C506.418 76.5 510 80.0817 510 84.5V108.5C510 112.918 506.418 116.5 502 116.5H398C393.582 116.5 390 112.918 390 108.5V84.5Z" fill="white" fill-opacity="0.8"/>
<path d="M398 77.5H502V75.5H398V77.5ZM509 84.5V108.5H511V84.5H509ZM502 115.5H398V117.5H502V115.5ZM391 108.5V84.5H389V108.5H391ZM398 115.5C394.134 115.5 391 112.366 391 108.5H389C389 113.471 393.029 117.5 398 117.5V115.5ZM509 108.5C509 112.366 505.866 115.5 502 115.5V117.5C506.971 117.5 511 113.471 511 108.5H509ZM502 77.5C505.866 77.5 509 80.634 509 84.5H511C511 79.5294 506.971 75.5 502 75.5V77.5ZM398 75.5C393.029 75.5 389 79.5294 389 84.5H391C391 80.634 394.134 77.5 398 77.5V75.5Z" fill="#5FCAFC" mask="url(#path-8-inside-1_130_117)"/>
</g>
<path d="M416.773 93.2727C416.705 92.697 416.428 92.25 415.943 91.9318C415.458 91.6136 414.864 91.4545 414.159 91.4545C413.644 91.4545 413.193 91.5379 412.807 91.7045C412.424 91.8712 412.125 92.1004 411.909 92.392C411.697 92.6837 411.591 93.0152 411.591 93.3864C411.591 93.697 411.665 93.964 411.812 94.1875C411.964 94.4072 412.157 94.5909 412.392 94.7386C412.627 94.8826 412.873 95.0019 413.131 95.0966C413.388 95.1875 413.625 95.2614 413.841 95.3182L415.023 95.6364C415.326 95.7159 415.663 95.8258 416.034 95.9659C416.409 96.1061 416.767 96.2973 417.108 96.5398C417.453 96.7784 417.737 97.0852 417.96 97.4602C418.184 97.8352 418.295 98.2955 418.295 98.8409C418.295 99.4697 418.131 100.038 417.801 100.545C417.475 101.053 416.998 101.456 416.369 101.756C415.744 102.055 414.985 102.205 414.091 102.205C413.258 102.205 412.536 102.07 411.926 101.801C411.32 101.532 410.843 101.157 410.494 100.676C410.15 100.195 409.955 99.6364 409.909 99H411.364C411.402 99.4394 411.549 99.803 411.807 100.091C412.068 100.375 412.398 100.587 412.795 100.727C413.197 100.864 413.629 100.932 414.091 100.932C414.629 100.932 415.112 100.845 415.54 100.67C415.968 100.492 416.307 100.246 416.557 99.9318C416.807 99.6136 416.932 99.2424 416.932 98.8182C416.932 98.4318 416.824 98.1174 416.608 97.875C416.392 97.6326 416.108 97.4356 415.756 97.2841C415.403 97.1326 415.023 97 414.614 96.8864L413.182 96.4773C412.273 96.2159 411.553 95.8428 411.023 95.358C410.492 94.8731 410.227 94.2386 410.227 93.4545C410.227 92.803 410.403 92.2348 410.756 91.75C411.112 91.2614 411.589 90.8826 412.188 90.6136C412.79 90.3409 413.462 90.2045 414.205 90.2045C414.955 90.2045 415.621 90.339 416.205 90.608C416.788 90.8731 417.25 91.2367 417.591 91.6989C417.936 92.161 418.117 92.6856 418.136 93.2727H416.773ZM423.976 102.182C423.188 102.182 422.497 101.994 421.902 101.619C421.311 101.244 420.849 100.72 420.516 100.045C420.186 99.3712 420.021 98.5833 420.021 97.6818C420.021 96.7727 420.186 95.9792 420.516 95.3011C420.849 94.6231 421.311 94.0966 421.902 93.7216C422.497 93.3466 423.188 93.1591 423.976 93.1591C424.764 93.1591 425.453 93.3466 426.044 93.7216C426.639 94.0966 427.101 94.6231 427.43 95.3011C427.764 95.9792 427.93 96.7727 427.93 97.6818C427.93 98.5833 427.764 99.3712 427.43 100.045C427.101 100.72 426.639 101.244 426.044 101.619C425.453 101.994 424.764 102.182 423.976 102.182ZM423.976 100.977C424.574 100.977 425.067 100.824 425.453 100.517C425.839 100.21 426.125 99.8068 426.311 99.3068C426.497 98.8068 426.589 98.2652 426.589 97.6818C426.589 97.0985 426.497 96.5549 426.311 96.0511C426.125 95.5473 425.839 95.1402 425.453 94.8295C425.067 94.5189 424.574 94.3636 423.976 94.3636C423.377 94.3636 422.885 94.5189 422.499 94.8295C422.112 95.1402 421.826 95.5473 421.641 96.0511C421.455 96.5549 421.362 97.0985 421.362 97.6818C421.362 98.2652 421.455 98.8068 421.641 99.3068C421.826 99.8068 422.112 100.21 422.499 100.517C422.885 100.824 423.377 100.977 423.976 100.977ZM430.159 102V90.3636H431.5V94.6591H431.614C431.712 94.5076 431.848 94.3144 432.023 94.0795C432.201 93.8409 432.455 93.6288 432.784 93.4432C433.117 93.2538 433.568 93.1591 434.136 93.1591C434.871 93.1591 435.519 93.3428 436.08 93.7102C436.64 94.0777 437.078 94.5985 437.392 95.2727C437.706 95.947 437.864 96.7424 437.864 97.6591C437.864 98.5833 437.706 99.3845 437.392 100.062C437.078 100.737 436.642 101.259 436.085 101.631C435.528 101.998 434.886 102.182 434.159 102.182C433.598 102.182 433.15 102.089 432.812 101.903C432.475 101.714 432.216 101.5 432.034 101.261C431.852 101.019 431.712 100.818 431.614 100.659H431.455V102H430.159ZM431.477 97.6364C431.477 98.2955 431.574 98.8769 431.767 99.3807C431.96 99.8807 432.242 100.273 432.614 100.557C432.985 100.837 433.439 100.977 433.977 100.977C434.538 100.977 435.006 100.83 435.381 100.534C435.759 100.235 436.044 99.8333 436.233 99.3295C436.426 98.822 436.523 98.2576 436.523 97.6364C436.523 97.0227 436.428 96.4697 436.239 95.9773C436.053 95.4811 435.771 95.089 435.392 94.8011C435.017 94.5095 434.545 94.3636 433.977 94.3636C433.432 94.3636 432.973 94.5019 432.602 94.7784C432.231 95.0511 431.951 95.4337 431.761 95.9261C431.572 96.4148 431.477 96.9848 431.477 97.6364ZM439.915 102V93.2727H441.21V94.5909H441.301C441.46 94.1591 441.748 93.8087 442.165 93.5398C442.581 93.2708 443.051 93.1364 443.574 93.1364C443.672 93.1364 443.795 93.1383 443.943 93.142C444.091 93.1458 444.203 93.1515 444.278 93.1591V94.5227C444.233 94.5114 444.129 94.4943 443.966 94.4716C443.807 94.4451 443.638 94.4318 443.46 94.4318C443.036 94.4318 442.657 94.5208 442.324 94.6989C441.994 94.8731 441.733 95.1155 441.54 95.4261C441.35 95.733 441.256 96.0833 441.256 96.4773V102H439.915ZM449.261 102.182C448.42 102.182 447.695 101.996 447.085 101.625C446.479 101.25 446.011 100.727 445.682 100.057C445.356 99.3826 445.193 98.5985 445.193 97.7045C445.193 96.8106 445.356 96.0227 445.682 95.3409C446.011 94.6553 446.47 94.1212 447.057 93.7386C447.648 93.3523 448.337 93.1591 449.125 93.1591C449.58 93.1591 450.028 93.2348 450.472 93.3864C450.915 93.5379 451.318 93.7841 451.682 94.125C452.045 94.4621 452.335 94.9091 452.551 95.4659C452.767 96.0227 452.875 96.7083 452.875 97.5227V98.0909H446.148V96.9318H451.511C451.511 96.4394 451.413 96 451.216 95.6136C451.023 95.2273 450.746 94.9223 450.386 94.6989C450.03 94.4754 449.61 94.3636 449.125 94.3636C448.591 94.3636 448.129 94.4962 447.739 94.7614C447.352 95.0227 447.055 95.3636 446.847 95.7841C446.638 96.2045 446.534 96.6553 446.534 97.1364V97.9091C446.534 98.5682 446.648 99.1269 446.875 99.5852C447.106 100.04 447.426 100.386 447.835 100.625C448.244 100.86 448.72 100.977 449.261 100.977C449.614 100.977 449.932 100.928 450.216 100.83C450.504 100.727 450.752 100.576 450.96 100.375C451.169 100.17 451.33 99.9167 451.443 99.6136L452.739 99.9773C452.602 100.417 452.373 100.803 452.051 101.136C451.729 101.466 451.331 101.723 450.858 101.909C450.384 102.091 449.852 102.182 449.261 102.182ZM468.824 90.3636V102H467.46L461.119 92.8636H461.006V102H459.597V90.3636H460.96L467.324 99.5227H467.438V90.3636H468.824ZM475.007 102.182C474.219 102.182 473.528 101.994 472.933 101.619C472.342 101.244 471.88 100.72 471.547 100.045C471.217 99.3712 471.053 98.5833 471.053 97.6818C471.053 96.7727 471.217 95.9792 471.547 95.3011C471.88 94.6231 472.342 94.0966 472.933 93.7216C473.528 93.3466 474.219 93.1591 475.007 93.1591C475.795 93.1591 476.484 93.3466 477.075 93.7216C477.67 94.0966 478.132 94.6231 478.462 95.3011C478.795 95.9792 478.962 96.7727 478.962 97.6818C478.962 98.5833 478.795 99.3712 478.462 100.045C478.132 100.72 477.67 101.244 477.075 101.619C476.484 101.994 475.795 102.182 475.007 102.182ZM475.007 100.977C475.606 100.977 476.098 100.824 476.484 100.517C476.871 100.21 477.157 99.8068 477.342 99.3068C477.528 98.8068 477.621 98.2652 477.621 97.6818C477.621 97.0985 477.528 96.5549 477.342 96.0511C477.157 95.5473 476.871 95.1402 476.484 94.8295C476.098 94.5189 475.606 94.3636 475.007 94.3636C474.409 94.3636 473.916 94.5189 473.53 94.8295C473.143 95.1402 472.857 95.5473 472.672 96.0511C472.486 96.5549 472.393 97.0985 472.393 97.6818C472.393 98.2652 472.486 98.8068 472.672 99.3068C472.857 99.8068 473.143 100.21 473.53 100.517C473.916 100.824 474.409 100.977 475.007 100.977ZM474.393 92.0909L475.78 89.4545H477.348L475.575 92.0909H474.393ZM487.19 95.2273L485.986 95.5682C485.91 95.3674 485.798 95.1723 485.651 94.983C485.507 94.7898 485.31 94.6307 485.06 94.5057C484.81 94.3807 484.49 94.3182 484.099 94.3182C483.565 94.3182 483.12 94.4413 482.764 94.6875C482.412 94.9299 482.236 95.2386 482.236 95.6136C482.236 95.947 482.357 96.2102 482.599 96.4034C482.842 96.5966 483.221 96.7576 483.736 96.8864L485.031 97.2045C485.812 97.3939 486.393 97.6837 486.776 98.0739C487.158 98.4602 487.349 98.9583 487.349 99.5682C487.349 100.068 487.205 100.515 486.918 100.909C486.634 101.303 486.236 101.614 485.724 101.841C485.213 102.068 484.618 102.182 483.94 102.182C483.05 102.182 482.313 101.989 481.73 101.602C481.147 101.216 480.777 100.652 480.622 99.9091L481.895 99.5909C482.016 100.061 482.245 100.413 482.582 100.648C482.923 100.883 483.368 101 483.918 101C484.543 101 485.039 100.867 485.406 100.602C485.777 100.333 485.963 100.011 485.963 99.6364C485.963 99.3333 485.857 99.0795 485.645 98.875C485.433 98.6667 485.107 98.5114 484.668 98.4091L483.213 98.0682C482.414 97.8788 481.827 97.5852 481.452 97.1875C481.08 96.786 480.895 96.2841 480.895 95.6818C480.895 95.1894 481.033 94.7538 481.31 94.375C481.59 93.9962 481.971 93.6989 482.452 93.483C482.937 93.267 483.486 93.1591 484.099 93.1591C484.963 93.1591 485.641 93.3485 486.134 93.7273C486.63 94.1061 486.982 94.6061 487.19 95.2273Z" fill="black"/>
<g filter="url(#filter2_d_130_117)">
<mask id="path-11-inside-2_130_117" fill="white">
<path d="M232 84.5C232 80.0817 235.582 76.5 240 76.5H344C348.418 76.5 352 80.0817 352 84.5V108.5C352 112.918 348.418 116.5 344 116.5H240C235.582 116.5 232 112.918 232 108.5V84.5Z"/>
</mask>
<path d="M232 84.5C232 80.0817 235.582 76.5 240 76.5H344C348.418 76.5 352 80.0817 352 84.5V108.5C352 112.918 348.418 116.5 344 116.5H240C235.582 116.5 232 112.918 232 108.5V84.5Z" fill="white" fill-opacity="0.8"/>
<path d="M240 77.5H344V75.5H240V77.5ZM351 84.5V108.5H353V84.5H351ZM344 115.5H240V117.5H344V115.5ZM233 108.5V84.5H231V108.5H233ZM240 115.5C236.134 115.5 233 112.366 233 108.5H231C231 113.471 235.029 117.5 240 117.5V115.5ZM351 108.5C351 112.366 347.866 115.5 344 115.5V117.5C348.971 117.5 353 113.471 353 108.5H351ZM344 77.5C347.866 77.5 351 80.634 351 84.5H353C353 79.5294 348.971 75.5 344 75.5V77.5ZM240 75.5C235.029 75.5 231 79.5294 231 84.5H233C233 80.634 236.134 77.5 240 77.5V75.5Z" fill="#5FCAFC" mask="url(#path-11-inside-2_130_117)"/>
<path d="M275.773 94.5H274.364C274.28 94.0947 274.134 93.7386 273.926 93.4318C273.722 93.125 273.472 92.8674 273.176 92.6591C272.884 92.447 272.561 92.2879 272.205 92.1818C271.848 92.0758 271.477 92.0227 271.091 92.0227C270.386 92.0227 269.748 92.2008 269.176 92.5568C268.608 92.9129 268.155 93.4375 267.818 94.1307C267.485 94.8239 267.318 95.6742 267.318 96.6818C267.318 97.6894 267.485 98.5398 267.818 99.233C268.155 99.9261 268.608 100.451 269.176 100.807C269.748 101.163 270.386 101.341 271.091 101.341C271.477 101.341 271.848 101.288 272.205 101.182C272.561 101.076 272.884 100.919 273.176 100.71C273.472 100.498 273.722 100.239 273.926 99.9318C274.134 99.6212 274.28 99.2652 274.364 98.8636H275.773C275.667 99.4583 275.473 99.9905 275.193 100.46C274.913 100.93 274.564 101.33 274.148 101.659C273.731 101.985 273.263 102.233 272.744 102.403C272.229 102.574 271.678 102.659 271.091 102.659C270.098 102.659 269.216 102.417 268.443 101.932C267.67 101.447 267.063 100.758 266.619 99.8636C266.176 98.9697 265.955 97.9091 265.955 96.6818C265.955 95.4545 266.176 94.3939 266.619 93.5C267.063 92.6061 267.67 91.9167 268.443 91.4318C269.216 90.947 270.098 90.7045 271.091 90.7045C271.678 90.7045 272.229 90.7898 272.744 90.9602C273.263 91.1307 273.731 91.3807 274.148 91.7102C274.564 92.036 274.913 92.4337 275.193 92.9034C275.473 93.3693 275.667 93.9015 275.773 94.5ZM283.368 98.9318V93.7727H284.709V102.5H283.368V101.023H283.277C283.072 101.466 282.754 101.843 282.322 102.153C281.891 102.46 281.345 102.614 280.686 102.614C280.141 102.614 279.656 102.494 279.232 102.256C278.807 102.013 278.474 101.65 278.232 101.165C277.989 100.676 277.868 100.061 277.868 99.3182V93.7727H279.209V99.2273C279.209 99.8636 279.387 100.371 279.743 100.75C280.103 101.129 280.561 101.318 281.118 101.318C281.451 101.318 281.79 101.233 282.135 101.062C282.483 100.892 282.775 100.631 283.01 100.278C283.249 99.9261 283.368 99.4773 283.368 98.9318ZM287.165 102.5V93.7727H288.46V95.0909H288.551C288.71 94.6591 288.998 94.3087 289.415 94.0398C289.831 93.7708 290.301 93.6364 290.824 93.6364C290.922 93.6364 291.045 93.6383 291.193 93.642C291.341 93.6458 291.453 93.6515 291.528 93.6591V95.0227C291.483 95.0114 291.379 94.9943 291.216 94.9716C291.057 94.9451 290.888 94.9318 290.71 94.9318C290.286 94.9318 289.907 95.0208 289.574 95.1989C289.244 95.3731 288.983 95.6155 288.79 95.9261C288.6 96.233 288.506 96.5833 288.506 96.9773V102.5H287.165ZM299.3 95.7273L298.095 96.0682C298.019 95.8674 297.908 95.6723 297.76 95.483C297.616 95.2898 297.419 95.1307 297.169 95.0057C296.919 94.8807 296.599 94.8182 296.209 94.8182C295.675 94.8182 295.23 94.9413 294.874 95.1875C294.521 95.4299 294.345 95.7386 294.345 96.1136C294.345 96.447 294.466 96.7102 294.709 96.9034C294.951 97.0966 295.33 97.2576 295.845 97.3864L297.141 97.7045C297.921 97.8939 298.502 98.1837 298.885 98.5739C299.268 98.9602 299.459 99.4583 299.459 100.068C299.459 100.568 299.315 101.015 299.027 101.409C298.743 101.803 298.345 102.114 297.834 102.341C297.322 102.568 296.728 102.682 296.05 102.682C295.16 102.682 294.423 102.489 293.839 102.102C293.256 101.716 292.887 101.152 292.732 100.409L294.004 100.091C294.125 100.561 294.355 100.913 294.692 101.148C295.033 101.383 295.478 101.5 296.027 101.5C296.652 101.5 297.148 101.367 297.516 101.102C297.887 100.833 298.072 100.511 298.072 100.136C298.072 99.8333 297.966 99.5795 297.754 99.375C297.542 99.1667 297.216 99.0114 296.777 98.9091L295.322 98.5682C294.523 98.3788 293.936 98.0852 293.561 97.6875C293.19 97.286 293.004 96.7841 293.004 96.1818C293.004 95.6894 293.143 95.2538 293.419 94.875C293.699 94.4962 294.08 94.1989 294.561 93.983C295.046 93.767 295.595 93.6591 296.209 93.6591C297.072 93.6591 297.75 93.8485 298.243 94.2273C298.739 94.6061 299.091 95.1061 299.3 95.7273ZM305.023 102.682C304.235 102.682 303.544 102.494 302.949 102.119C302.358 101.744 301.896 101.22 301.562 100.545C301.233 99.8712 301.068 99.0833 301.068 98.1818C301.068 97.2727 301.233 96.4792 301.562 95.8011C301.896 95.1231 302.358 94.5966 302.949 94.2216C303.544 93.8466 304.235 93.6591 305.023 93.6591C305.811 93.6591 306.5 93.8466 307.091 94.2216C307.686 94.5966 308.148 95.1231 308.477 95.8011C308.811 96.4792 308.977 97.2727 308.977 98.1818C308.977 99.0833 308.811 99.8712 308.477 100.545C308.148 101.22 307.686 101.744 307.091 102.119C306.5 102.494 305.811 102.682 305.023 102.682ZM305.023 101.477C305.621 101.477 306.114 101.324 306.5 101.017C306.886 100.71 307.172 100.307 307.358 99.8068C307.544 99.3068 307.636 98.7652 307.636 98.1818C307.636 97.5985 307.544 97.0549 307.358 96.5511C307.172 96.0473 306.886 95.6402 306.5 95.3295C306.114 95.0189 305.621 94.8636 305.023 94.8636C304.424 94.8636 303.932 95.0189 303.545 95.3295C303.159 95.6402 302.873 96.0473 302.688 96.5511C302.502 97.0549 302.409 97.5985 302.409 98.1818C302.409 98.7652 302.502 99.3068 302.688 99.8068C302.873 100.307 303.159 100.71 303.545 101.017C303.932 101.324 304.424 101.477 305.023 101.477ZM317.206 95.7273L316.001 96.0682C315.926 95.8674 315.814 95.6723 315.666 95.483C315.522 95.2898 315.325 95.1307 315.075 95.0057C314.825 94.8807 314.505 94.8182 314.115 94.8182C313.581 94.8182 313.136 94.9413 312.78 95.1875C312.428 95.4299 312.251 95.7386 312.251 96.1136C312.251 96.447 312.373 96.7102 312.615 96.9034C312.857 97.0966 313.236 97.2576 313.751 97.3864L315.047 97.7045C315.827 97.8939 316.409 98.1837 316.791 98.5739C317.174 98.9602 317.365 99.4583 317.365 100.068C317.365 100.568 317.221 101.015 316.933 101.409C316.649 101.803 316.251 102.114 315.74 102.341C315.229 102.568 314.634 102.682 313.956 102.682C313.066 102.682 312.329 102.489 311.746 102.102C311.162 101.716 310.793 101.152 310.638 100.409L311.911 100.091C312.032 100.561 312.261 100.913 312.598 101.148C312.939 101.383 313.384 101.5 313.933 101.5C314.558 101.5 315.054 101.367 315.422 101.102C315.793 100.833 315.979 100.511 315.979 100.136C315.979 99.8333 315.873 99.5795 315.661 99.375C315.448 99.1667 315.123 99.0114 314.683 98.9091L313.229 98.5682C312.429 98.3788 311.842 98.0852 311.467 97.6875C311.096 97.286 310.911 96.7841 310.911 96.1818C310.911 95.6894 311.049 95.2538 311.325 94.875C311.606 94.4962 311.986 94.1989 312.467 93.983C312.952 93.767 313.501 93.6591 314.115 93.6591C314.979 93.6591 315.657 93.8485 316.149 94.2273C316.645 94.6061 316.998 95.1061 317.206 95.7273Z" fill="black"/>
</g>
<g filter="url(#filter3_d_130_117)">
<mask id="path-14-inside-3_130_117" fill="white">
<path d="M74 85C74 80.5817 77.5817 77 82 77H186C190.418 77 194 80.5817 194 85V109C194 113.418 190.418 117 186 117H82C77.5817 117 74 113.418 74 109V85Z"/>
</mask>
<path d="M74 85C74 80.5817 77.5817 77 82 77H186C190.418 77 194 80.5817 194 85V109C194 113.418 190.418 117 186 117H82C77.5817 117 74 113.418 74 109V85Z" fill="white" fill-opacity="0.8" shape-rendering="crispEdges"/>
<path d="M82 78H186V76H82V78ZM193 85V109H195V85H193ZM186 116H82V118H186V116ZM75 109V85H73V109H75ZM82 116C78.134 116 75 112.866 75 109H73C73 113.971 77.0294 118 82 118V116ZM193 109C193 112.866 189.866 116 186 116V118C190.971 118 195 113.971 195 109H193ZM186 78C189.866 78 193 81.134 193 85H195C195 80.0294 190.971 76 186 76V78ZM82 76C77.0294 76 73 80.0294 73 85H75C75 81.134 78.134 78 82 78V76Z" fill="#5FCAFC" mask="url(#path-14-inside-3_130_117)"/>
<path d="M114.273 95H112.864C112.78 94.5947 112.634 94.2386 112.426 93.9318C112.222 93.625 111.972 93.3674 111.676 93.1591C111.384 92.947 111.061 92.7879 110.705 92.6818C110.348 92.5758 109.977 92.5227 109.591 92.5227C108.886 92.5227 108.248 92.7008 107.676 93.0568C107.108 93.4129 106.655 93.9375 106.318 94.6307C105.985 95.3239 105.818 96.1742 105.818 97.1818C105.818 98.1894 105.985 99.0398 106.318 99.733C106.655 100.426 107.108 100.951 107.676 101.307C108.248 101.663 108.886 101.841 109.591 101.841C109.977 101.841 110.348 101.788 110.705 101.682C111.061 101.576 111.384 101.419 111.676 101.21C111.972 100.998 112.222 100.739 112.426 100.432C112.634 100.121 112.78 99.7652 112.864 99.3636H114.273C114.167 99.9583 113.973 100.491 113.693 100.96C113.413 101.43 113.064 101.83 112.648 102.159C112.231 102.485 111.763 102.733 111.244 102.903C110.729 103.074 110.178 103.159 109.591 103.159C108.598 103.159 107.716 102.917 106.943 102.432C106.17 101.947 105.563 101.258 105.119 100.364C104.676 99.4697 104.455 98.4091 104.455 97.1818C104.455 95.9545 104.676 94.8939 105.119 94C105.563 93.1061 106.17 92.4167 106.943 91.9318C107.716 91.447 108.598 91.2045 109.591 91.2045C110.178 91.2045 110.729 91.2898 111.244 91.4602C111.763 91.6307 112.231 91.8807 112.648 92.2102C113.064 92.536 113.413 92.9337 113.693 93.4034C113.973 93.8693 114.167 94.4015 114.273 95ZM119.913 103.182C119.125 103.182 118.434 102.994 117.839 102.619C117.249 102.244 116.786 101.72 116.453 101.045C116.124 100.371 115.959 99.5833 115.959 98.6818C115.959 97.7727 116.124 96.9792 116.453 96.3011C116.786 95.6231 117.249 95.0966 117.839 94.7216C118.434 94.3466 119.125 94.1591 119.913 94.1591C120.701 94.1591 121.391 94.3466 121.982 94.7216C122.576 95.0966 123.038 95.6231 123.368 96.3011C123.701 96.9792 123.868 97.7727 123.868 98.6818C123.868 99.5833 123.701 100.371 123.368 101.045C123.038 101.72 122.576 102.244 121.982 102.619C121.391 102.994 120.701 103.182 119.913 103.182ZM119.913 101.977C120.512 101.977 121.004 101.824 121.391 101.517C121.777 101.21 122.063 100.807 122.249 100.307C122.434 99.8068 122.527 99.2652 122.527 98.6818C122.527 98.0985 122.434 97.5549 122.249 97.0511C122.063 96.5473 121.777 96.1402 121.391 95.8295C121.004 95.5189 120.512 95.3636 119.913 95.3636C119.315 95.3636 118.822 95.5189 118.436 95.8295C118.05 96.1402 117.764 96.5473 117.578 97.0511C117.393 97.5549 117.3 98.0985 117.3 98.6818C117.3 99.2652 117.393 99.8068 117.578 100.307C117.764 100.807 118.05 101.21 118.436 101.517C118.822 101.824 119.315 101.977 119.913 101.977ZM127.256 97.75V103H125.915V94.2727H127.21V95.6364H127.324C127.528 95.1932 127.839 94.8371 128.256 94.5682C128.672 94.2955 129.21 94.1591 129.869 94.1591C130.46 94.1591 130.977 94.2803 131.42 94.5227C131.864 94.7614 132.208 95.125 132.455 95.6136C132.701 96.0985 132.824 96.7121 132.824 97.4545V103H131.483V97.5455C131.483 96.8598 131.305 96.3258 130.949 95.9432C130.593 95.5568 130.104 95.3636 129.483 95.3636C129.055 95.3636 128.672 95.4564 128.335 95.642C128.002 95.8277 127.739 96.0985 127.545 96.4545C127.352 96.8106 127.256 97.2424 127.256 97.75ZM139.07 94.2727V95.4091H134.547V94.2727H139.07ZM135.865 92.1818H137.206V100.5C137.206 100.879 137.261 101.163 137.371 101.352C137.484 101.538 137.628 101.663 137.803 101.727C137.981 101.788 138.168 101.818 138.365 101.818C138.513 101.818 138.634 101.811 138.729 101.795C138.823 101.777 138.899 101.761 138.956 101.75L139.229 102.955C139.138 102.989 139.011 103.023 138.848 103.057C138.685 103.095 138.479 103.114 138.229 103.114C137.85 103.114 137.479 103.032 137.115 102.869C136.755 102.706 136.456 102.458 136.217 102.125C135.982 101.792 135.865 101.371 135.865 100.864V92.1818ZM143.655 103.205C143.102 103.205 142.6 103.1 142.149 102.892C141.698 102.68 141.34 102.375 141.075 101.977C140.81 101.576 140.678 101.091 140.678 100.523C140.678 100.023 140.776 99.6174 140.973 99.3068C141.17 98.9924 141.433 98.7462 141.763 98.5682C142.092 98.3902 142.456 98.2576 142.854 98.1705C143.255 98.0795 143.659 98.0076 144.064 97.9545C144.594 97.8864 145.024 97.8352 145.354 97.8011C145.687 97.7633 145.929 97.7008 146.081 97.6136C146.236 97.5265 146.314 97.375 146.314 97.1591V97.1136C146.314 96.553 146.161 96.1174 145.854 95.8068C145.551 95.4962 145.09 95.3409 144.473 95.3409C143.833 95.3409 143.331 95.4811 142.967 95.7614C142.604 96.0417 142.348 96.3409 142.2 96.6591L140.928 96.2045C141.155 95.6742 141.458 95.2614 141.837 94.9659C142.219 94.6667 142.636 94.4583 143.087 94.3409C143.541 94.2197 143.988 94.1591 144.428 94.1591C144.708 94.1591 145.03 94.1932 145.393 94.2614C145.761 94.3258 146.115 94.4602 146.456 94.6648C146.801 94.8693 147.087 95.178 147.314 95.5909C147.541 96.0038 147.655 96.5568 147.655 97.25V103H146.314V101.818H146.246C146.155 102.008 146.003 102.21 145.791 102.426C145.579 102.642 145.297 102.826 144.945 102.977C144.592 103.129 144.162 103.205 143.655 103.205ZM143.859 102C144.39 102 144.837 101.896 145.2 101.688C145.568 101.479 145.844 101.21 146.03 100.881C146.219 100.551 146.314 100.205 146.314 99.8409V98.6136C146.257 98.6818 146.132 98.7443 145.939 98.8011C145.75 98.8542 145.53 98.9015 145.28 98.9432C145.034 98.9811 144.793 99.0152 144.558 99.0455C144.327 99.072 144.14 99.0947 143.996 99.1136C143.647 99.1591 143.321 99.233 143.018 99.3352C142.719 99.4337 142.477 99.5833 142.291 99.7841C142.109 99.9811 142.018 100.25 142.018 100.591C142.018 101.057 142.191 101.409 142.536 101.648C142.884 101.883 143.325 102 143.859 102ZM153.898 94.2727V95.4091H149.375V94.2727H153.898ZM150.693 92.1818H152.034V100.5C152.034 100.879 152.089 101.163 152.199 101.352C152.313 101.538 152.456 101.663 152.631 101.727C152.809 101.788 152.996 101.818 153.193 101.818C153.341 101.818 153.462 101.811 153.557 101.795C153.652 101.777 153.727 101.761 153.784 101.75L154.057 102.955C153.966 102.989 153.839 103.023 153.676 103.057C153.513 103.095 153.307 103.114 153.057 103.114C152.678 103.114 152.307 103.032 151.943 102.869C151.583 102.706 151.284 102.458 151.045 102.125C150.811 101.792 150.693 101.371 150.693 100.864V92.1818ZM159.366 103.182C158.579 103.182 157.887 102.994 157.293 102.619C156.702 102.244 156.24 101.72 155.906 101.045C155.577 100.371 155.412 99.5833 155.412 98.6818C155.412 97.7727 155.577 96.9792 155.906 96.3011C156.24 95.6231 156.702 95.0966 157.293 94.7216C157.887 94.3466 158.579 94.1591 159.366 94.1591C160.154 94.1591 160.844 94.3466 161.435 94.7216C162.029 95.0966 162.491 95.6231 162.821 96.3011C163.154 96.9792 163.321 97.7727 163.321 98.6818C163.321 99.5833 163.154 100.371 162.821 101.045C162.491 101.72 162.029 102.244 161.435 102.619C160.844 102.994 160.154 103.182 159.366 103.182ZM159.366 101.977C159.965 101.977 160.457 101.824 160.844 101.517C161.23 101.21 161.516 100.807 161.702 100.307C161.887 99.8068 161.98 99.2652 161.98 98.6818C161.98 98.0985 161.887 97.5549 161.702 97.0511C161.516 96.5473 161.23 96.1402 160.844 95.8295C160.457 95.5189 159.965 95.3636 159.366 95.3636C158.768 95.3636 158.276 95.5189 157.889 95.8295C157.503 96.1402 157.217 96.5473 157.031 97.0511C156.846 97.5549 156.753 98.0985 156.753 98.6818C156.753 99.2652 156.846 99.8068 157.031 100.307C157.217 100.807 157.503 101.21 157.889 101.517C158.276 101.824 158.768 101.977 159.366 101.977Z" fill="black"/>
</g>
<path d="M673.119 16.411H655.078C652.222 16.411 649.907 18.4547 649.907 20.9756C649.907 23.4966 652.222 25.5402 655.078 25.5402H673.119C675.975 25.5402 678.29 23.4966 678.29 20.9756C678.29 18.4547 675.975 16.411 673.119 16.411Z" fill="#5011C4" stroke="black" stroke-width="0.755906" stroke-miterlimit="2.1" stroke-linecap="square"/>
<path d="M636.331 17.6281H637.359C637.949 17.6281 638.427 18.0829 638.427 18.6439V23.9908C638.427 24.5518 637.949 25.0066 637.359 25.0066H636.331C635.741 25.0066 635.263 24.5518 635.263 23.9908V18.6439C635.263 18.0829 635.741 17.6281 636.331 17.6281Z" fill="#5011C4" stroke="black" stroke-width="0.755906" stroke-miterlimit="2.1" stroke-linecap="square"/>
<path d="M630 16.2307L664.09 8L698 15.5377L664.188 20.7211L630 16.2307Z" fill="#1BB1FD" stroke="black" stroke-width="0.755906" stroke-miterlimit="2.1" stroke-linecap="square"/>
<path d="M636.015 29.8242H637.557C638.08 29.8242 638.353 30.1912 638.167 30.644L637.086 33.2841C636.9 33.7369 636.326 34.1039 635.804 34.1039H634.262C633.739 34.1039 633.466 33.7369 633.651 33.2841L634.733 30.644C634.919 30.1912 635.493 29.8242 636.015 29.8242Z" fill="#5011C4" stroke="black" stroke-width="0.783101" stroke-miterlimit="2.1" stroke-linecap="square"/>
<path d="M649.585 27.553L649.412 76.1272L649.41 76.9876L659.946 77L659.888 56.1628L669.46 54.6871C674.723 53.8758 685.888 50.6804 688.972 47.6743C690.157 46.3099 692.22 45.3773 692.122 40.5334C692.071 37.9937 691.685 37.1302 690.519 35.0096C690.166 34.3442 688.304 32.2424 686.412 31.0773C685.063 30.2605 683.162 29.5931 681.811 29.2356L681.809 29.2347C681.778 29.2265 681.745 29.2182 681.714 29.2089C681.69 29.2007 681.665 29.1945 681.64 29.1876C681.621 29.1815 681.599 29.1773 681.58 29.1711C681.575 29.1698 681.569 29.169 681.564 29.167C681.542 29.1608 681.518 29.1546 681.497 29.1505L681.488 29.1492C681.454 29.145 681.421 29.1409 681.387 29.1347C681.345 29.1306 681.304 29.1223 681.263 29.1161C681.213 29.1079 681.164 29.0975 681.116 29.0839C681.109 29.0818 681.1 29.0798 681.094 29.0777C681.068 29.0736 681.042 29.0674 681.017 29.0612C680.995 29.055 680.975 29.0509 680.954 29.0447C680.947 29.0426 680.941 29.0405 680.932 29.0385C680.906 29.0323 680.881 29.0261 680.855 29.022C680.821 29.0178 680.788 29.0116 680.755 29.0075C680.724 29.0034 680.694 28.9972 680.664 28.9951C680.625 28.9889 680.587 28.9848 680.549 28.9765C680.533 28.9745 680.508 28.9683 680.485 28.9641C680.439 28.96 680.372 28.9497 680.336 28.9497C678.341 28.3145 669.537 27.5535 665.753 27.5535L649.585 27.553ZM658.901 33.2279L684.687 40.8783L659.492 48.6618L658.901 33.2279Z" fill="#1BB1FD" stroke="black" stroke-width="0.755906"/>
<path d="M636.817 29.5244C635.102 29.5244 633.713 28.5598 633.713 27.3701C633.713 26.1803 635.102 25.2158 636.817 25.2158C638.531 25.2158 639.92 26.1803 639.92 27.3701C639.92 28.5598 638.531 29.5244 636.817 29.5244Z" fill="#45E492" stroke="black" stroke-width="0.755906" stroke-miterlimit="2.1" stroke-linecap="square"/>
<path d="M649.418 76.9769L642.618 76.9666L649.447 74.6884L649.43 75.962L649.418 76.9769Z" fill="#1BB1FD" stroke="black" stroke-width="0.755906"/>
<path d="M648.983 75.1952L649.906 74.9039L649.908 76.6721L648.892 76.6639L648.983 75.1952Z" fill="#1BB1FD"/>
<path d="M664.103 8.04626L664.31 20.7159L640.68 17.599L630.006 16.2195L663.937 8.0174L664.103 8.04626Z" fill="#02527B" stroke="black" stroke-width="0.755906"/>
<path d="M678.286 18.5658L664.269 20.7303L649.905 18.8469L649.883 22.7938L664.787 23.7029L678.242 22.9641L678.286 18.5658Z" fill="black" stroke="black" stroke-width="0.755906"/>
</g>
<defs>
<filter id="filter0_d_130_117" x="842" y="71" width="407" height="53" filterUnits="userSpaceOnUse" color-interpolation-filters="sRGB">
<feFlood flood-opacity="0" result="BackgroundImageFix"/>
<feColorMatrix in="SourceAlpha" type="matrix" values="0 0 0 0 0 0 0 0 0 0 0 0 0 0 0 0 0 0 127 0" result="hardAlpha"/>
<feOffset dy="4"/>
<feGaussianBlur stdDeviation="2"/>
<feComposite in2="hardAlpha" operator="out"/>
<feColorMatrix type="matrix" values="0 0 0 0 0.00784314 0 0 0 0 0.52549 0 0 0 0 0.756863 0 0 0 0.56 0"/>
<feBlend mode="normal" in2="BackgroundImageFix" result="effect1_dropShadow_130_117"/>
<feBlend mode="normal" in="SourceGraphic" in2="effect1_dropShadow_130_117" result="shape"/>
</filter>
<filter id="filter1_d_130_117" x="386" y="76" width="128" height="49" filterUnits="userSpaceOnUse" color-interpolation-filters="sRGB">
<feFlood flood-opacity="0" result="BackgroundImageFix"/>
<feColorMatrix in="SourceAlpha" type="matrix" values="0 0 0 0 0 0 0 0 0 0 0 0 0 0 0 0 0 0 127 0" result="hardAlpha"/>
<feOffset dy="4"/>
<feGaussianBlur stdDeviation="2"/>
<feComposite in2="hardAlpha" operator="out"/>
<feColorMatrix type="matrix" values="0 0 0 0 0.105882 0 0 0 0 0.694118 0 0 0 0 0.992157 0 0 0 0.49 0"/>
<feBlend mode="normal" in2="BackgroundImageFix" result="effect1_dropShadow_130_117"/>
<feBlend mode="normal" in="SourceGraphic" in2="effect1_dropShadow_130_117" result="shape"/>
</filter>
<filter id="filter2_d_130_117" x="228" y="76" width="128" height="49" filterUnits="userSpaceOnUse" color-interpolation-filters="sRGB">
<feFlood flood-opacity="0" result="BackgroundImageFix"/>
<feColorMatrix in="SourceAlpha" type="matrix" values="0 0 0 0 0 0 0 0 0 0 0 0 0 0 0 0 0 0 127 0" result="hardAlpha"/>
<feOffset dy="4"/>
<feGaussianBlur stdDeviation="2"/>
<feComposite in2="hardAlpha" operator="out"/>
<feColorMatrix type="matrix" values="0 0 0 0 0.105882 0 0 0 0 0.694118 0 0 0 0 0.992157 0 0 0 0.45 0"/>
<feBlend mode="normal" in2="BackgroundImageFix" result="effect1_dropShadow_130_117"/>
<feBlend mode="normal" in="SourceGraphic" in2="effect1_dropShadow_130_117" result="shape"/>
</filter>
<filter id="filter3_d_130_117" x="70" y="77" width="128" height="48" filterUnits="userSpaceOnUse" color-interpolation-filters="sRGB">
<feFlood flood-opacity="0" result="BackgroundImageFix"/>
<feColorMatrix in="SourceAlpha" type="matrix" values="0 0 0 0 0 0 0 0 0 0 0 0 0 0 0 0 0 0 127 0" result="hardAlpha"/>
<feOffset dy="4"/>
<feGaussianBlur stdDeviation="2"/>
<feComposite in2="hardAlpha" operator="out"/>
<feColorMatrix type="matrix" values="0 0 0 0 0.105882 0 0 0 0 0.694118 0 0 0 0 0.992157 0 0 0 0.48 0"/>
<feBlend mode="normal" in2="BackgroundImageFix" result="effect1_dropShadow_130_117"/>
<feBlend mode="normal" in="SourceGraphic" in2="effect1_dropShadow_130_117" result="shape"/>
</filter>
<clipPath id="clip0_130_117">
<rect width="1280" height="152" fill="white"/>
</clipPath>
</defs>
</svg>
